<?xml version="1.0" encoding="UTF-8" standalone="no"?>
<!DOCTYPE svg PUBLIC "-//W3C//DTD SVG 1.1//EN" "http://www.w3.org/Graphics/SVG/1.1/DTD/svg11.dtd">
<svg xmlns="http://www.w3.org/2000/svg" version="1.1" viewBox="0 0 720 480">
<g stroke-width="2.00" fill="none" stroke-linecap="butt">
<path stroke="#85b1fd" vector-effect="non-scaling-stroke" d="
  M 3.48 2.76
  A 0.75 0.74 79.9 0 0 3.00 3.46
  Q 3.00 239.30 3.00 473.58
  C 3.00 474.59 2.59 475.89 2.51 477.00
  Q 2.46 477.58 3.04 477.52
  C 14.06 476.34 25.56 477.07 36.70 476.74
  Q 37.08 476.73 37.42 476.89
  Q 37.71 477.01 38.00 477.01
  Q 360.85 477.01 683.69 476.99
  Q 707.72 476.99 716.63 477.22
  Q 717.02 477.23 717.02 476.84
  Q 716.97 241.63 717.01 6.43
  C 717.01 5.40 717.46 4.17 717.51 3.04
  Q 717.53 2.51 717.00 2.58
  C 715.76 2.76 714.58 3.00 713.34 3.00
  Q 359.24 3.00 5.13 3.00
  Q 4.70 3.00 4.32 2.81
  Q 3.89 2.61 3.48 2.76"
/>
<path stroke="#828282" vector-effect="non-scaling-stroke" d="
  M 591.08 214.23
  L 636.91 290.74
  A 0.84 0.82 73.4 0 0 637.63 291.14
  L 657.09 290.63
  Q 657.50 290.62 657.29 290.27
  L 591.02 179.71
  Q 590.78 179.30 590.53 179.71
  Q 570.28 213.40 550.12 247.12
  Q 542.75 259.46 538.65 263.42
  C 527.79 273.88 511.25 276.49 497.61 269.89
  C 475.56 259.23 469.83 230.85 485.91 212.42
  C 501.63 194.40 529.16 196.57 543.35 215.27
  A 0.24 0.24 0.0 0 0 543.75 215.24
  L 552.69 200.38
  A 1.14 1.12 37.9 0 0 552.51 198.99
  C 536.26 182.98 513.58 177.84 492.52 186.58
  C 464.29 198.29 451.56 231.38 464.12 259.36
  C 481.77 298.70 537.66 302.15 559.69 265.19
  Q 574.89 239.70 590.31 214.23
  Q 590.69 213.59 591.08 214.23"
/>
<path stroke="#828282" vector-effect="non-scaling-stroke" d="
  M 127.72 259.03
  A 0.34 0.34 0.0 0 1 127.12 259.03
  L 84.43 183.35
  A 0.34 0.34 0.0 0 0 84.13 183.18
  L 64.70 183.28
  A 0.34 0.34 0.0 0 0 64.40 183.78
  L 127.17 295.04
  A 0.34 0.34 0.0 0 0 127.77 295.04
  L 180.70 201.17
  A 0.34 0.34 0.0 0 1 181.00 201.00
  L 246.38 201.00
  A 0.34 0.34 0.0 0 0 246.72 200.66
  L 246.82 183.59
  A 0.34 0.34 0.0 0 0 246.48 183.25
  L 170.68 183.25
  A 0.34 0.34 0.0 0 0 170.38 183.42
  L 127.72 259.03"
/>
<path stroke="#828282" vector-effect="non-scaling-stroke" d="
  M 324.68 242.12
  C 350.32 229.95 348.98 193.06 321.56 184.56
  Q 317.38 183.26 310.14 183.26
  Q 282.70 183.27 255.04 183.22
  Q 254.50 183.22 254.50 183.76
  L 254.50 290.25
  Q 254.50 290.75 255.00 290.75
  L 271.75 290.75
  Q 272.25 290.75 272.25 290.25
  L 272.25 245.00
  A 0.50 0.50 0.0 0 1 272.75 244.50
  L 306.72 244.50
  Q 307.46 244.50 307.82 245.15
  L 332.40 290.21
  Q 332.70 290.75 333.31 290.75
  L 349.74 290.75
  Q 350.31 290.75 350.03 290.25
  L 324.38 243.05
  Q 324.04 242.43 324.68 242.12"
/>
<path stroke="#828282" vector-effect="non-scaling-stroke" d="
  M 373.75 201.50
  L 373.75 290.25
  Q 373.75 290.75 374.25 290.75
  L 391.00 290.75
  Q 391.50 290.75 391.50 290.25
  L 391.50 201.50
  A 0.50 0.50 0.0 0 1 392.00 201.00
  L 427.25 201.00
  Q 428.00 201.00 428.00 200.25
  L 428.00 183.75
  Q 428.00 183.26 427.50 183.26
  L 338.75 183.23
  Q 336.86 183.23 338.28 184.47
  Q 345.86 191.05 349.34 200.52
  Q 349.52 201.00 350.03 201.00
  L 373.25 201.00
  Q 373.75 201.00 373.75 201.50"
/>
<path stroke="#828282" vector-effect="non-scaling-stroke" d="
  M 453.00 183.51
  A 0.26 0.26 0.0 0 0 452.74 183.25
  L 435.52 183.25
  A 0.26 0.26 0.0 0 0 435.26 183.51
  L 435.26 290.49
  A 0.26 0.26 0.0 0 0 435.52 290.75
  L 452.74 290.75
  A 0.26 0.26 0.0 0 0 453.00 290.49
  L 453.00 183.51"
/>
<path stroke="#828282" vector-effect="non-scaling-stroke" d="
  M 188.75 246.70
  A 0.35 0.35 0.0 0 1 189.10 246.35
  L 246.42 246.25
  A 0.35 0.35 0.0 0 0 246.77 245.90
  L 246.74 229.08
  A 0.35 0.35 0.0 0 0 246.39 228.73
  L 171.60 228.55
  A 0.35 0.35 0.0 0 0 171.25 228.90
  L 171.25 290.40
  A 0.35 0.35 0.0 0 0 171.60 290.75
  L 246.43 290.75
  A 0.35 0.35 0.0 0 0 246.78 290.40
  L 246.76 273.35
  A 0.35 0.35 0.0 0 0 246.41 273.00
  L 189.10 273.00
  A 0.35 0.35 0.0 0 1 188.75 272.65
  L 188.75 246.70"
/>
<path stroke="#828282" vector-effect="non-scaling-stroke" d="
  M 317.14 225.98
  C 327.84 222.05 328.29 206.47 317.78 202.11
  Q 315.18 201.03 309.52 201.01
  Q 291.20 200.93 272.76 201.03
  Q 272.25 201.04 272.25 201.54
  L 272.25 226.23
  Q 272.25 226.74 272.76 226.74
  Q 291.52 226.78 310.25 226.74
  Q 315.07 226.74 317.14 225.98"
/>
</g>
<path fill="#0a63fb" d="
  M 0.00 0.00
  L 720.00 0.00
  L 720.00 480.00
  L 0.00 480.00
  L 0.00 0.00
  Z
  M 3.48 2.76
  A 0.75 0.74 79.9 0 0 3.00 3.46
  Q 3.00 239.30 3.00 473.58
  C 3.00 474.59 2.59 475.89 2.51 477.00
  Q 2.46 477.58 3.04 477.52
  C 14.06 476.34 25.56 477.07 36.70 476.74
  Q 37.08 476.73 37.42 476.89
  Q 37.71 477.01 38.00 477.01
  Q 360.85 477.01 683.69 476.99
  Q 707.72 476.99 716.63 477.22
  Q 717.02 477.23 717.02 476.84
  Q 716.97 241.63 717.01 6.43
  C 717.01 5.40 717.46 4.17 717.51 3.04
  Q 717.53 2.51 717.00 2.58
  C 715.76 2.76 714.58 3.00 713.34 3.00
  Q 359.24 3.00 5.13 3.00
  Q 4.70 3.00 4.32 2.81
  Q 3.89 2.61 3.48 2.76
  Z"
/>
<path fill="#ffffff" d="
  M 3.48 2.76
  Q 3.89 2.61 4.32 2.81
  Q 4.70 3.00 5.13 3.00
  Q 359.24 3.00 713.34 3.00
  C 714.58 3.00 715.76 2.76 717.00 2.58
  Q 717.53 2.51 717.51 3.04
  C 717.46 4.17 717.01 5.40 717.01 6.43
  Q 716.97 241.63 717.02 476.84
  Q 717.02 477.23 716.63 477.22
  Q 707.72 476.99 683.69 476.99
  Q 360.85 477.01 38.00 477.01
  Q 37.71 477.01 37.42 476.89
  Q 37.08 476.73 36.70 476.74
  C 25.56 477.07 14.06 476.34 3.04 477.52
  Q 2.46 477.58 2.51 477.00
  C 2.59 475.89 3.00 474.59 3.00 473.58
  Q 3.00 239.30 3.00 3.46
  A 0.75 0.74 79.9 0 1 3.48 2.76
  Z
  M 591.08 214.23
  L 636.91 290.74
  A 0.84 0.82 73.4 0 0 637.63 291.14
  L 657.09 290.63
  Q 657.50 290.62 657.29 290.27
  L 591.02 179.71
  Q 590.78 179.30 590.53 179.71
  Q 570.28 213.40 550.12 247.12
  Q 542.75 259.46 538.65 263.42
  C 527.79 273.88 511.25 276.49 497.61 269.89
  C 475.56 259.23 469.83 230.85 485.91 212.42
  C 501.63 194.40 529.16 196.57 543.35 215.27
  A 0.24 0.24 0.0 0 0 543.75 215.24
  L 552.69 200.38
  A 1.14 1.12 37.9 0 0 552.51 198.99
  C 536.26 182.98 513.58 177.84 492.52 186.58
  C 464.29 198.29 451.56 231.38 464.12 259.36
  C 481.77 298.70 537.66 302.15 559.69 265.19
  Q 574.89 239.70 590.31 214.23
  Q 590.69 213.59 591.08 214.23
  Z
  M 127.72 259.03
  A 0.34 0.34 0.0 0 1 127.12 259.03
  L 84.43 183.35
  A 0.34 0.34 0.0 0 0 84.13 183.18
  L 64.70 183.28
  A 0.34 0.34 0.0 0 0 64.40 183.78
  L 127.17 295.04
  A 0.34 0.34 0.0 0 0 127.77 295.04
  L 180.70 201.17
  A 0.34 0.34 0.0 0 1 181.00 201.00
  L 246.38 201.00
  A 0.34 0.34 0.0 0 0 246.72 200.66
  L 246.82 183.59
  A 0.34 0.34 0.0 0 0 246.48 183.25
  L 170.68 183.25
  A 0.34 0.34 0.0 0 0 170.38 183.42
  L 127.72 259.03
  Z
  M 324.68 242.12
  C 350.32 229.95 348.98 193.06 321.56 184.56
  Q 317.38 183.26 310.14 183.26
  Q 282.70 183.27 255.04 183.22
  Q 254.50 183.22 254.50 183.76
  L 254.50 290.25
  Q 254.50 290.75 255.00 290.75
  L 271.75 290.75
  Q 272.25 290.75 272.25 290.25
  L 272.25 245.00
  A 0.50 0.50 0.0 0 1 272.75 244.50
  L 306.72 244.50
  Q 307.46 244.50 307.82 245.15
  L 332.40 290.21
  Q 332.70 290.75 333.31 290.75
  L 349.74 290.75
  Q 350.31 290.75 350.03 290.25
  L 324.38 243.05
  Q 324.04 242.43 324.68 242.12
  Z
  M 373.75 201.50
  L 373.75 290.25
  Q 373.75 290.75 374.25 290.75
  L 391.00 290.75
  Q 391.50 290.75 391.50 290.25
  L 391.50 201.50
  A 0.50 0.50 0.0 0 1 392.00 201.00
  L 427.25 201.00
  Q 428.00 201.00 428.00 200.25
  L 428.00 183.75
  Q 428.00 183.26 427.50 183.26
  L 338.75 183.23
  Q 336.86 183.23 338.28 184.47
  Q 345.86 191.05 349.34 200.52
  Q 349.52 201.00 350.03 201.00
  L 373.25 201.00
  Q 373.75 201.00 373.75 201.50
  Z
  M 453.00 183.51
  A 0.26 0.26 0.0 0 0 452.74 183.25
  L 435.52 183.25
  A 0.26 0.26 0.0 0 0 435.26 183.51
  L 435.26 290.49
  A 0.26 0.26 0.0 0 0 435.52 290.75
  L 452.74 290.75
  A 0.26 0.26 0.0 0 0 453.00 290.49
  L 453.00 183.51
  Z
  M 188.75 246.70
  A 0.35 0.35 0.0 0 1 189.10 246.35
  L 246.42 246.25
  A 0.35 0.35 0.0 0 0 246.77 245.90
  L 246.74 229.08
  A 0.35 0.35 0.0 0 0 246.39 228.73
  L 171.60 228.55
  A 0.35 0.35 0.0 0 0 171.25 228.90
  L 171.25 290.40
  A 0.35 0.35 0.0 0 0 171.60 290.75
  L 246.43 290.75
  A 0.35 0.35 0.0 0 0 246.78 290.40
  L 246.76 273.35
  A 0.35 0.35 0.0 0 0 246.41 273.00
  L 189.10 273.00
  A 0.35 0.35 0.0 0 1 188.75 272.65
  L 188.75 246.70
  Z"
/>
<path fill="#050505" d="
  M 591.08 214.23
  Q 590.69 213.59 590.31 214.23
  Q 574.89 239.70 559.69 265.19
  C 537.66 302.15 481.77 298.70 464.12 259.36
  C 451.56 231.38 464.29 198.29 492.52 186.58
  C 513.58 177.84 536.26 182.98 552.51 198.99
  A 1.14 1.12 37.9 0 1 552.69 200.38
  L 543.75 215.24
  A 0.24 0.24 0.0 0 1 543.35 215.27
  C 529.16 196.57 501.63 194.40 485.91 212.42
  C 469.83 230.85 475.56 259.23 497.61 269.89
  C 511.25 276.49 527.79 273.88 538.65 263.42
  Q 542.75 259.46 550.12 247.12
  Q 570.28 213.40 590.53 179.71
  Q 590.78 179.30 591.02 179.71
  L 657.29 290.27
  Q 657.50 290.62 657.09 290.63
  L 637.63 291.14
  A 0.84 0.82 73.4 0 1 636.91 290.74
  L 591.08 214.23
  Z"
/>
<path fill="#050505" d="
  M 127.72 259.03
  L 170.38 183.42
  A 0.34 0.34 0.0 0 1 170.68 183.25
  L 246.48 183.25
  A 0.34 0.34 0.0 0 1 246.82 183.59
  L 246.72 200.66
  A 0.34 0.34 0.0 0 1 246.38 201.00
  L 181.00 201.00
  A 0.34 0.34 0.0 0 0 180.70 201.17
  L 127.77 295.04
  A 0.34 0.34 0.0 0 1 127.17 295.04
  L 64.40 183.78
  A 0.34 0.34 0.0 0 1 64.70 183.28
  L 84.13 183.18
  A 0.34 0.34 0.0 0 1 84.43 183.35
  L 127.12 259.03
  A 0.34 0.34 0.0 0 0 127.72 259.03
  Z"
/>
<path fill="#050505" d="
  M 324.38 243.05
  L 350.03 290.25
  Q 350.31 290.75 349.74 290.75
  L 333.31 290.75
  Q 332.70 290.75 332.40 290.21
  L 307.82 245.15
  Q 307.46 244.50 306.72 244.50
  L 272.75 244.50
  A 0.50 0.50 0.0 0 0 272.25 245.00
  L 272.25 290.25
  Q 272.25 290.75 271.75 290.75
  L 255.00 290.75
  Q 254.50 290.75 254.50 290.25
  L 254.50 183.76
  Q 254.50 183.22 255.04 183.22
  Q 282.70 183.27 310.14 183.26
  Q 317.38 183.26 321.56 184.56
  C 348.98 193.06 350.32 229.95 324.68 242.12
  Q 324.04 242.43 324.38 243.05
  Z
  M 317.14 225.98
  C 327.84 222.05 328.29 206.47 317.78 202.11
  Q 315.18 201.03 309.52 201.01
  Q 291.20 200.93 272.76 201.03
  Q 272.25 201.04 272.25 201.54
  L 272.25 226.23
  Q 272.25 226.74 272.76 226.74
  Q 291.52 226.78 310.25 226.74
  Q 315.07 226.74 317.14 225.98
  Z"
/>
<path fill="#050505" d="
  M 373.25 201.00
  L 350.03 201.00
  Q 349.52 201.00 349.34 200.52
  Q 345.86 191.05 338.28 184.47
  Q 336.86 183.23 338.75 183.23
  L 427.50 183.26
  Q 428.00 183.26 428.00 183.75
  L 428.00 200.25
  Q 428.00 201.00 427.25 201.00
  L 392.00 201.00
  A 0.50 0.50 0.0 0 0 391.50 201.50
  L 391.50 290.25
  Q 391.50 290.75 391.00 290.75
  L 374.25 290.75
  Q 373.75 290.75 373.75 290.25
  L 373.75 201.50
  Q 373.75 201.00 373.25 201.00
  Z"
/>
<rect fill="#050505" x="435.26" y="183.25" width="17.74" height="107.50" rx="0.26"/>
<path fill="#ffffff" d="
  M 317.78 202.11
  C 328.29 206.47 327.84 222.05 317.14 225.98
  Q 315.07 226.74 310.25 226.74
  Q 291.52 226.78 272.76 226.74
  Q 272.25 226.74 272.25 226.23
  L 272.25 201.54
  Q 272.25 201.04 272.76 201.03
  Q 291.20 200.93 309.52 201.01
  Q 315.18 201.03 317.78 202.11
  Z"
/>
<path fill="#050505" d="
  M 188.75 246.70
  L 188.75 272.65
  A 0.35 0.35 0.0 0 0 189.10 273.00
  L 246.41 273.00
  A 0.35 0.35 0.0 0 1 246.76 273.35
  L 246.78 290.40
  A 0.35 0.35 0.0 0 1 246.43 290.75
  L 171.60 290.75
  A 0.35 0.35 0.0 0 1 171.25 290.40
  L 171.25 228.90
  A 0.35 0.35 0.0 0 1 171.60 228.55
  L 246.39 228.73
  A 0.35 0.35 0.0 0 1 246.74 229.08
  L 246.77 245.90
  A 0.35 0.35 0.0 0 1 246.42 246.25
  L 189.10 246.35
  A 0.35 0.35 0.0 0 0 188.75 246.70
  Z"
/>
</svg>
